<svg xmlns="http://www.w3.org/2000/svg" viewBox="0 0 116 124.58"><defs><style>.cls-1{fill:none;stroke:#534b62;stroke-miterlimit:10;}</style></defs><g id="Layer_2" data-name="Layer 2"><g id="Layer_1-2" data-name="Layer 1"><path class="cls-1" d="M101.24,11.53A10.28,10.28,0,0,0,93.18,11a8.52,8.52,0,0,0-5,4.44c-1.66,3.85.61,7.44.83,7.78a9.25,9.25,0,0,0,9.16,3.88,10.67,10.67,0,0,1,1.39-.27c0,.06-2,.28-2.22,1.11s1.37,1.64,3.33,3.33a30.74,30.74,0,0,1,3.89,4.16A36.86,36.86,0,0,1,109,42.62a63.89,63.89,0,0,1,3.61,7.77,47.65,47.65,0,0,1,2.77,14.16A56.06,56.06,0,0,1,113.73,82a56.69,56.69,0,0,1-16.66,27.21,57.9,57.9,0,0,1-22.49,12.49,59.2,59.2,0,0,1-31.92.28,58.52,58.52,0,0,1-25.27-14.16,60.72,60.72,0,0,1-8-9.71,68.71,68.71,0,0,0,5.28,5.55,38.35,38.35,0,0,0,9.71,6.94C27.92,112.36,30.9,113,36,114c3.12.62,5.57.9,6.74,1,.69.07,3.23.28,7.15.37a72.7,72.7,0,0,0,11.93-.56,63.75,63.75,0,0,0,10-2.22C86.16,108,95,96.53,95.41,95.92a47,47,0,0,0,8.6-20,48.42,48.42,0,0,0-2.22-24.44,40.07,40.07,0,0,0-4.16-8.88,35.9,35.9,0,0,0-8-8.88c-4-3.11-5-2.5-7-5a14.85,14.85,0,0,1-3-9.44,12.72,12.72,0,0,1,2.22-6.94,13.18,13.18,0,0,1,9.44-5.27A12.71,12.71,0,0,1,101.24,11.53ZM83.75,37.07c1.36,2.83,2.57,5.74,3.88,8.6,4,8.8,4.4,19.72,4.44,21.38a57.73,57.73,0,0,1-1.94,16.66c-1.44,5.17-3.2,11.5-8.61,16.66-2.61,2.49-5.65,4.3-5.55,4.44a28.34,28.34,0,0,0,5.83-3.61,48.35,48.35,0,0,0,9.44-9.44,43.31,43.31,0,0,0,5.28-8.61,40.64,40.64,0,0,0,3.6-13.88,40.29,40.29,0,0,0-2.49-16.38A41,41,0,0,0,91.8,42.34c-.78-1-2.37-2.7-5.56-6.1-3.73-4-4.5-4.6-4.72-4.45S82.19,33.83,83.75,37.07Zm-30-15.27a4.44,4.44,0,1,0,4.44,4.44A4.44,4.44,0,0,0,53.76,21.8ZM91.24.7c0-.22-2.26-.31-4.72,0a22.13,22.13,0,0,0-6.38,1.67c-4.73,2.1-7.29,5.76-8.89,8.05a28,28,0,0,0-4.44,10c-.8,3.73-.45,7,.28,13.33.34,3,.92,7.07,1.94,11.93.91,3.45,1.59,6.11,1.94,7.5,0,0,.15.59.56,2.5a6.19,6.19,0,0,1,.28,1.66c-.14,1.17-1.34,1.92-2.78,2.78-2.92,1.76-4.38,2.63-4.72,2.78-10.32,4.35-15.48,6.53-20,7.77a44.54,44.54,0,0,0-7.49,2.5,28.69,28.69,0,0,0-6.39,3.89,11.25,11.25,0,0,0-3.05,3c-2,3.47-.4,7.39-.83,7.5s-2.61-3.54-2.5-8.06c.09-4,2-6.93,3.61-9.43a27.6,27.6,0,0,1,6.1-7c1.62-1.28,2.07-1.3,4.17-3a31.76,31.76,0,0,1,3.88-2.78,3.45,3.45,0,0,1,2.5-.83A3,3,0,0,1,46,57.89c3,4,4.54,6.06,4.72,6.39s.63,1.19,1.39,1.38a3,3,0,0,0,1.66-.27c1-.32,1.49-.48,1.67-.84.31-.61-.36-1.5-1.11-2.5l-3.61-4.72c-1.92-2.35-1.86-2.45-3.33-4.16-1.09-1.26-1-1.06-2.5-2.78-.61-.69-1.53-1.76-2.78-3-1-1.05-1.55-1.56-1.94-1.67-1.12-.29-1.9.57-4.72,2.5-2.39,1.64-2.58,1.53-5.55,3.61s-3.09,2.43-3.06,2.5c.14.26,1.63-.44,4.45-1.11,1.29-.31,4.26-1,4.44-.55s-2.9,1.74-6.39,4.16c-2.84,2-6,4.2-8.33,8-.65,1.11-3.66,6.19-2.5,12.22.59,3,2.07,5.41,3.89,8.32a27.49,27.49,0,0,0,3.33,4.45,21.82,21.82,0,0,0,5.56,4.44,21.1,21.1,0,0,0,10.27,2.5,16.87,16.87,0,0,0,5.27-1.11c1.41-.47,2-.79,2-1.11s-1-.54-2.5-1.39a11,11,0,0,1-2.78-2.22c-1.32-1.51-1.57-2.84-2.22-2.78-.34,0-.44.41-.83.83a4.66,4.66,0,0,1-3.33,1.11c-4.5.32-6.75.47-6.95,0-.56-1.36,4.62-4.67,5.56-5.27a42.44,42.44,0,0,1,7.49-3.61c4.51-1.81,4.93-1.65,10-3.61,2.15-.83,4.11-1.66,8-3.33,5.71-2.42,4.27-1.94,6.38-2.78a17.08,17.08,0,0,0,3.06-1.38c1.9-1.17,2.47-2.17,3-2s.63,1.2.56,4.44A55.79,55.79,0,0,1,74,78.43,28.28,28.28,0,0,1,70.42,89a29.06,29.06,0,0,1-7.5,8.33c-9.85,7.42-21.23,6-22.48,5.83a31.58,31.58,0,0,1-16.11-7.49c-8.78-7.34-11.26-16.91-12.21-20.83a45.42,45.42,0,0,1-1.11-13c.21-3.8,1.28-18.9,13.32-31.1,1-1,8.34-8.29,18.61-11.38A56.62,56.62,0,0,1,54,17.36a24.07,24.07,0,0,1,6.66,0l3.06.55a25.12,25.12,0,0,1,1.11-3.05c.66-1.52,1-2,.83-2.5s-1.49-.71-3.89-.83c-3.55-.19-5.34-.28-5.55-.28a53.84,53.84,0,0,0-6.11.56c-2.36.3-4.57.65-5.55.83C37.28,14,29,19,28.5,19.3A60.44,60.44,0,0,0,13.79,32.07,53.86,53.86,0,0,0,2.68,51.78a49.69,49.69,0,0,0,13.05,50.53c3.82,3.88,8.23,8.35,15.55,10.55,5.81,1.75,10.8,1.25,15,.83a43.82,43.82,0,0,0,15.82-4.16A41.55,41.55,0,0,0,81,89.54c4.43-10.17,3.35-19.47,2.78-24.43-.18-1.53-.77-4.26-2-9.72C80.43,49,79,43.11,76.8,33.18a50.9,50.9,0,0,1-1.38-9.44,26.2,26.2,0,0,1,.83-9.44,21.31,21.31,0,0,1,5-8.6,15.25,15.25,0,0,1,4.44-3.33C88.64.94,91.26.94,91.24.7ZM52.37,37.35a14.45,14.45,0,0,1-2.77,5.27,17.87,17.87,0,0,1-4.17,4.72c-.54.4-1.5,1-1.38,1.67s2.81,3.69,3.6,3.61c1.23-.14,1.33-1.74,3.61-3.61.94-.77,1.36-.86,1.67-.84,1,.07,1.62,1.18,2.22,2.22,3.72,6.42,4.74,7.28,4.72,9.72,0,.91-.15,1.63,0,1.67.33.08,1.65-2.93,2.22-6.11a16,16,0,0,0-.55-9.16,32.56,32.56,0,0,0-3.34-5C54,35.71,53.15,35.87,52.93,36S52.56,36.57,52.37,37.35Zm8.89,38A15.25,15.25,0,0,1,59,76.77c-1.32.7-1.41.54-1.67.83-.85,1,.1,2.75.56,4.72a15.4,15.4,0,0,1-.28,6.94A17.48,17.48,0,0,1,54.32,97c-2.23,2.8-4.67,3.72-4.44,4.17s3.26-.35,5.83-1.67a13.94,13.94,0,0,0,5.55-4.44,16.66,16.66,0,0,0,2.22-5.55,19.82,19.82,0,0,0,.83-4.72A28.15,28.15,0,0,0,64,80.65c-.61-5.87-1.07-6.33-1.38-6.38S62.32,74.56,61.26,75.38Z"/></g></g></svg>